<?xml version="1.0" encoding="UTF-8" standalone="no" ?>
<!DOCTYPE svg PUBLIC "-//W3C//DTD SVG 1.1//EN" "http://www.w3.org/Graphics/SVG/1.1/DTD/svg11.dtd">
<svg xmlns="http://www.w3.org/2000/svg" xmlns:xlink="http://www.w3.org/1999/xlink" version="1.1" width="445" height="445" viewBox="0 0 445 445" xml:space="preserve">
<desc>Created with Fabric.js 1.7.22</desc>
<defs>
</defs>
<g id="icon" style="stroke: none; stroke-width: 1; stroke-dasharray: none; stroke-linecap: butt; stroke-linejoin: miter; stroke-miterlimit: 10; fill: none; fill-rule: nonzero; opacity: 1;" transform="translate(-2.4722222222222285 -2.4722222222222285) scale(4.94 4.94)" >
	<circle cx="50.208" cy="68.418" r="21.108" style="stroke: none; stroke-width: 1; stroke-dasharray: none; stroke-linecap: butt; stroke-linejoin: miter; stroke-miterlimit: 10; fill: rgb(248,204,29); fill-rule: nonzero; opacity: 1;" transform="  matrix(1 0 0 1 0 0) "/>
	<path d="M 90 9.436 l -6.414 -1.773 l 0.582 2.242 l -61.406 15.94 c -0.54 0.14 -0.865 0.692 -0.724 1.233 c 0.118 0.455 0.528 0.757 0.978 0.757 c 0.084 0 0.169 -0.011 0.255 -0.033 l 61.405 -15.941 l 0.582 2.242 L 90 9.436 z" style="stroke: none; stroke-width: 1; stroke-dasharray: none; stroke-linecap: butt; stroke-linejoin: miter; stroke-miterlimit: 10; fill: rgb(0,0,0); fill-rule: nonzero; opacity: 1;" transform=" matrix(1 0 0 1 0 0) " stroke-linecap="round" />
	<path d="M 75.27 77.718 h -7.715 c -1.725 0 -3.129 -1.404 -3.129 -3.13 v -34.6 c 0 -1.426 0.964 -2.672 2.343 -3.03 l 7.715 -2.003 c 0.94 -0.247 1.93 -0.044 2.701 0.554 c 0.772 0.597 1.216 1.5 1.216 2.476 v 36.603 C 78.4 76.314 76.996 77.718 75.27 77.718 z M 75.273 36.876 c -0.094 0 -0.188 0.012 -0.281 0.036 l -7.715 2.003 c -0.488 0.127 -0.829 0.568 -0.829 1.072 v 34.6 c 0 0.611 0.497 1.108 1.107 1.108 h 7.715 c 0.611 0 1.108 -0.497 1.108 -1.108 V 37.985 c 0 -0.346 -0.157 -0.665 -0.431 -0.876 C 75.751 36.956 75.515 36.876 75.273 36.876 z" style="stroke: none; stroke-width: 1; stroke-dasharray: none; stroke-linecap: butt; stroke-linejoin: miter; stroke-miterlimit: 10; fill: rgb(0,0,0); fill-rule: nonzero; opacity: 1;" transform=" matrix(1 0 0 1 0 0) " stroke-linecap="round" />
	<path d="M 54.061 77.718 h -7.715 c -1.726 0 -3.13 -1.404 -3.13 -3.13 V 45.494 c 0 -1.426 0.964 -2.672 2.344 -3.03 l 7.715 -2.003 c 0.943 -0.247 1.93 -0.043 2.701 0.554 c 0.772 0.597 1.215 1.5 1.215 2.476 v 31.097 C 57.19 76.314 55.786 77.718 54.061 77.718 z M 54.063 42.382 c -0.093 0 -0.187 0.012 -0.28 0.036 l -7.715 2.003 c -0.488 0.127 -0.83 0.568 -0.83 1.072 v 29.094 c 0 0.611 0.497 1.108 1.108 1.108 h 7.715 c 0.61 0 1.107 -0.497 1.107 -1.108 V 43.491 c 0 -0.346 -0.157 -0.665 -0.43 -0.876 C 54.541 42.462 54.305 42.382 54.063 42.382 z" style="stroke: none; stroke-width: 1; stroke-dasharray: none; stroke-linecap: butt; stroke-linejoin: miter; stroke-miterlimit: 10; fill: rgb(0,0,0); fill-rule: nonzero; opacity: 1;" transform=" matrix(1 0 0 1 0 0) " stroke-linecap="round" />
	<path d="M 32.85 77.718 h -7.715 c -1.726 0 -3.13 -1.404 -3.13 -3.13 V 51 c 0 -1.425 0.963 -2.671 2.343 -3.03 l 7.715 -2.003 c 0.945 -0.246 1.93 -0.043 2.701 0.553 c 0.773 0.597 1.216 1.5 1.216 2.477 v 25.591 C 35.981 76.314 34.577 77.718 32.85 77.718 z M 32.853 47.889 c -0.093 0 -0.188 0.012 -0.281 0.036 l -7.715 2.003 c -0.488 0.127 -0.83 0.568 -0.83 1.072 v 23.588 c 0 0.611 0.497 1.108 1.108 1.108 h 7.715 c 0.611 0 1.108 -0.497 1.108 -1.108 V 48.997 c 0 -0.346 -0.157 -0.665 -0.43 -0.876 C 33.331 47.968 33.095 47.889 32.853 47.889 z" style="stroke: none; stroke-width: 1; stroke-dasharray: none; stroke-linecap: butt; stroke-linejoin: miter; stroke-miterlimit: 10; fill: rgb(0,0,0); fill-rule: nonzero; opacity: 1;" transform=" matrix(1 0 0 1 0 0) " stroke-linecap="round" />
	<path d="M 23.016 16.442 c -0.45 0 -0.86 -0.302 -0.978 -0.757 c -0.141 -0.541 0.184 -1.093 0.724 -1.233 L 76.489 0.504 c 0.54 -0.142 1.091 0.184 1.232 0.724 c 0.14 0.541 -0.184 1.093 -0.725 1.233 L 23.271 16.409 C 23.185 16.431 23.1 16.442 23.016 16.442 z" style="stroke: none; stroke-width: 1; stroke-dasharray: none; stroke-linecap: butt; stroke-linejoin: miter; stroke-miterlimit: 10; fill: rgb(248,204,29); fill-rule: nonzero; opacity: 1;" transform=" matrix(1 0 0 1 0 0) " stroke-linecap="round" />
	<path d="M 15.062 41.628 c -0.45 0 -0.86 -0.302 -0.978 -0.757 c -0.14 -0.541 0.184 -1.093 0.724 -1.233 l 53.727 -13.947 c 0.538 -0.14 1.092 0.184 1.232 0.724 c 0.14 0.541 -0.184 1.093 -0.725 1.233 L 15.317 41.595 C 15.232 41.618 15.146 41.628 15.062 41.628 z" style="stroke: none; stroke-width: 1; stroke-dasharray: none; stroke-linecap: butt; stroke-linejoin: miter; stroke-miterlimit: 10; fill: rgb(248,204,29); fill-rule: nonzero; opacity: 1;" transform=" matrix(1 0 0 1 0 0) " stroke-linecap="round" />
	<path d="M 7.072 42.177 H 5.053 v -2.019 c 0 -0.558 -0.453 -1.011 -1.011 -1.011 c -0.558 0 -1.011 0.453 -1.011 1.011 v 2.019 h -2.02 C 0.453 42.177 0 42.629 0 43.188 c 0 0.558 0.453 1.011 1.011 1.011 h 2.02 v 2.02 c 0 0.558 0.453 1.011 1.011 1.011 c 0.558 0 1.011 -0.452 1.011 -1.011 v -2.02 h 2.019 c 0.558 0 1.011 -0.453 1.011 -1.011 C 8.083 42.629 7.631 42.177 7.072 42.177 z" style="stroke: none; stroke-width: 1; stroke-dasharray: none; stroke-linecap: butt; stroke-linejoin: miter; stroke-miterlimit: 10; fill: rgb(248,204,29); fill-rule: nonzero; opacity: 1;" transform=" matrix(1 0 0 1 0 0) " stroke-linecap="round" />
	<path d="M 11.938 22.691 c -1.105 0 -2.143 -0.43 -2.925 -1.211 c -0.781 -0.781 -1.212 -1.82 -1.212 -2.925 c 0 -1.105 0.43 -2.143 1.212 -2.925 c 0.781 -0.781 1.82 -1.211 2.925 -1.211 c 1.105 0 2.143 0.43 2.924 1.211 c 0.782 0.781 1.212 1.82 1.212 2.925 c 0 1.105 -0.43 2.143 -1.212 2.925 l 0 0 C 14.081 22.26 13.043 22.691 11.938 22.691 z M 11.938 16.442 c -0.541 0 -1.082 0.206 -1.494 0.618 c -0.399 0.399 -0.619 0.93 -0.619 1.495 c 0 0.565 0.22 1.095 0.619 1.495 c 0.824 0.824 2.164 0.824 2.989 0 l 0 0 c 0.399 -0.399 0.619 -0.93 0.619 -1.495 c 0 -0.564 -0.22 -1.095 -0.619 -1.495 C 13.02 16.648 12.479 16.442 11.938 16.442 z" style="stroke: none; stroke-width: 1; stroke-dasharray: none; stroke-linecap: butt; stroke-linejoin: miter; stroke-miterlimit: 10; fill: rgb(248,204,29); fill-rule: nonzero; opacity: 1;" transform=" matrix(1 0 0 1 0 0) " stroke-linecap="round" />
</g>
</svg>