<?xml version="1.0" encoding="UTF-8" standalone="no" ?>
<!DOCTYPE svg PUBLIC "-//W3C//DTD SVG 1.1//EN" "http://www.w3.org/Graphics/SVG/1.1/DTD/svg11.dtd">
<svg xmlns="http://www.w3.org/2000/svg" xmlns:xlink="http://www.w3.org/1999/xlink" version="1.1" width="445" height="445" viewBox="0 0 445 445" xml:space="preserve">
<desc>Created with Fabric.js 1.7.22</desc>
<defs>
</defs>
<g id="icon" style="stroke: none; stroke-width: 1; stroke-dasharray: none; stroke-linecap: butt; stroke-linejoin: miter; stroke-miterlimit: 10; fill: none; fill-rule: nonzero; opacity: 1;" transform="translate(-2.4722222222222285 -2.4722222222222285) scale(4.94 4.94)" >
	<path d="M 86.16 75.392 H 3.84 c -1.569 0 -2.84 -1.272 -2.84 -2.84 V 8.138 c 0 -1.569 1.272 -2.84 2.84 -2.84 H 86.16 c 1.569 0 2.84 1.272 2.84 2.84 v 64.414 C 89 74.12 87.728 75.392 86.16 75.392 z" style="stroke: none; stroke-width: 1; stroke-dasharray: none; stroke-linecap: butt; stroke-linejoin: miter; stroke-miterlimit: 10; fill: rgb(240,245,247); fill-rule: nonzero; opacity: 1;" transform=" matrix(1 0 0 1 0 0) " stroke-linecap="round" />
	<path d="M 86.159 76.392 H 3.84 c -2.118 0 -3.84 -1.723 -3.84 -3.841 V 8.138 c 0 -2.118 1.723 -3.84 3.84 -3.84 h 82.319 C 88.277 4.297 90 6.02 90 8.138 v 64.413 C 90 74.669 88.277 76.392 86.159 76.392 z M 3.84 6.297 C 2.826 6.297 2 7.123 2 8.138 v 64.413 c 0 1.015 0.826 1.841 1.84 1.841 h 82.319 c 1.015 0 1.841 -0.826 1.841 -1.841 V 8.138 c 0 -1.015 -0.826 -1.84 -1.841 -1.84 H 3.84 z" style="stroke: none; stroke-width: 1; stroke-dasharray: none; stroke-linecap: butt; stroke-linejoin: miter; stroke-miterlimit: 10; fill: rgb(91,93,110); fill-rule: nonzero; opacity: 1;" transform=" matrix(1 0 0 1 0 0) " stroke-linecap="round" />
	<path d="M 89 17.718 H 1 V 8.569 c 0 -1.807 1.465 -3.272 3.272 -3.272 h 81.456 C 87.535 5.297 89 6.762 89 8.569 V 17.718 z" style="stroke: none; stroke-width: 1; stroke-dasharray: none; stroke-linecap: butt; stroke-linejoin: miter; stroke-miterlimit: 10; fill: rgb(91,93,110); fill-rule: nonzero; opacity: 1;" transform=" matrix(1 0 0 1 0 0) " stroke-linecap="round" />
	<path d="M 34.509 12.386 H 6.559 c -0.552 0 -1 -0.448 -1 -1 s 0.448 -1 1 -1 h 27.95 c 0.552 0 1 0.448 1 1 S 35.062 12.386 34.509 12.386 z" style="stroke: none; stroke-width: 1; stroke-dasharray: none; stroke-linecap: butt; stroke-linejoin: miter; stroke-miterlimit: 10; fill: rgb(255,255,255); fill-rule: nonzero; opacity: 1;" transform=" matrix(1 0 0 1 0 0) " stroke-linecap="round" />
	<path d="M 83.941 12.386 h -6.5 c -0.553 0 -1 -0.448 -1 -1 s 0.447 -1 1 -1 h 6.5 c 0.553 0 1 0.448 1 1 S 84.494 12.386 83.941 12.386 z" style="stroke: none; stroke-width: 1; stroke-dasharray: none; stroke-linecap: butt; stroke-linejoin: miter; stroke-miterlimit: 10; fill: rgb(255,255,255); fill-rule: nonzero; opacity: 1;" transform=" matrix(1 0 0 1 0 0) " stroke-linecap="round" />
	<path d="M 62.381 57.085 c 0 -9.876 -8.238 -17.828 -18.217 -17.358 c -8.556 0.402 -15.706 7.233 -16.468 15.765 c -0.57 6.392 2.33 12.131 7.022 15.58 c 1.833 1.347 2.838 3.549 2.838 5.824 v 4.911 c 0 1.6 1.297 2.897 2.897 2.897 h 9.698 c 1.6 0 2.897 -1.297 2.897 -2.897 v -5.363 c 0 -2.311 1.128 -4.429 2.92 -5.887 C 59.88 67.371 62.381 62.523 62.381 57.085 z" style="stroke: none; stroke-width: 1; stroke-dasharray: none; stroke-linecap: butt; stroke-linejoin: miter; stroke-miterlimit: 10; fill: rgb(255,195,110); fill-rule: nonzero; opacity: 1;" transform=" matrix(1 0 0 1 0 0) " stroke-linecap="round" />
	<path d="M 36.243 62.043 c -0.236 0 -0.474 -0.084 -0.665 -0.253 c -0.413 -0.368 -0.449 -1 -0.082 -1.412 l 6.02 -6.758 l 4.795 4.141 l 4.196 -5.011 c 0.355 -0.421 0.985 -0.479 1.409 -0.124 c 0.423 0.354 0.479 0.985 0.124 1.409 l -5.501 6.567 l -4.84 -4.182 l -4.71 5.287 C 36.793 61.93 36.519 62.043 36.243 62.043 z" style="stroke: none; stroke-width: 1; stroke-dasharray: none; stroke-linecap: butt; stroke-linejoin: miter; stroke-miterlimit: 10; fill: rgb(255,100,100); fill-rule: nonzero; opacity: 1;" transform=" matrix(1 0 0 1 0 0) " stroke-linecap="round" />
	<polygon points="52.83,55.73 53.76,50.42 48.7,52.27 " style="stroke: none; stroke-width: 1; stroke-dasharray: none; stroke-linecap: butt; stroke-linejoin: miter; stroke-miterlimit: 10; fill: rgb(255,100,100); fill-rule: nonzero; opacity: 1;" transform="  matrix(1 0 0 1 0 0) "/>
	<path d="M 24.038 56.492 h -7.999 c -0.552 0 -1 -0.447 -1 -1 s 0.448 -1 1 -1 h 7.999 c 0.552 0 1 0.447 1 1 S 24.59 56.492 24.038 56.492 z" style="stroke: none; stroke-width: 1; stroke-dasharray: none; stroke-linecap: butt; stroke-linejoin: miter; stroke-miterlimit: 10; fill: rgb(255,195,110); fill-rule: nonzero; opacity: 1;" transform=" matrix(1 0 0 1 0 0) " stroke-linecap="round" />
	<path d="M 74.039 56.492 H 66.04 c -0.553 0 -1 -0.447 -1 -1 s 0.447 -1 1 -1 h 7.999 c 0.553 0 1 0.447 1 1 S 74.592 56.492 74.039 56.492 z" style="stroke: none; stroke-width: 1; stroke-dasharray: none; stroke-linecap: butt; stroke-linejoin: miter; stroke-miterlimit: 10; fill: rgb(255,195,110); fill-rule: nonzero; opacity: 1;" transform=" matrix(1 0 0 1 0 0) " stroke-linecap="round" />
	<path d="M 59.889 41.642 c -0.256 0 -0.512 -0.098 -0.707 -0.293 c -0.391 -0.391 -0.391 -1.023 0 -1.414 l 5.656 -5.656 c 0.391 -0.391 1.023 -0.391 1.414 0 s 0.391 1.023 0 1.414 l -5.656 5.656 C 60.4 41.544 60.145 41.642 59.889 41.642 z" style="stroke: none; stroke-width: 1; stroke-dasharray: none; stroke-linecap: butt; stroke-linejoin: miter; stroke-miterlimit: 10; fill: rgb(255,195,110); fill-rule: nonzero; opacity: 1;" transform=" matrix(1 0 0 1 0 0) " stroke-linecap="round" />
	<path d="M 45.039 35.491 c -0.552 0 -1 -0.448 -1 -1 v -7.999 c 0 -0.552 0.448 -1 1 -1 s 1 0.448 1 1 v 7.999 C 46.039 35.043 45.591 35.491 45.039 35.491 z" style="stroke: none; stroke-width: 1; stroke-dasharray: none; stroke-linecap: butt; stroke-linejoin: miter; stroke-miterlimit: 10; fill: rgb(255,195,110); fill-rule: nonzero; opacity: 1;" transform=" matrix(1 0 0 1 0 0) " stroke-linecap="round" />
	<path d="M 30.189 41.642 c -0.256 0 -0.512 -0.098 -0.707 -0.293 l -5.656 -5.656 c -0.391 -0.391 -0.391 -1.023 0 -1.414 s 1.023 -0.391 1.414 0 l 5.656 5.656 c 0.391 0.391 0.391 1.023 0 1.414 C 30.701 41.544 30.445 41.642 30.189 41.642 z" style="stroke: none; stroke-width: 1; stroke-dasharray: none; stroke-linecap: butt; stroke-linejoin: miter; stroke-miterlimit: 10; fill: rgb(255,195,110); fill-rule: nonzero; opacity: 1;" transform=" matrix(1 0 0 1 0 0) " stroke-linecap="round" />
</g>
</svg>