<?xml version="1.0" encoding="UTF-8" standalone="no" ?>
<!DOCTYPE svg PUBLIC "-//W3C//DTD SVG 1.1//EN" "http://www.w3.org/Graphics/SVG/1.1/DTD/svg11.dtd">
<svg xmlns="http://www.w3.org/2000/svg" xmlns:xlink="http://www.w3.org/1999/xlink" version="1.1" width="445" height="445" viewBox="0 0 445 445" xml:space="preserve">
<desc>Created with Fabric.js 1.7.22</desc>
<defs>
</defs>
<g id="icon" style="stroke: none; stroke-width: 1; stroke-dasharray: none; stroke-linecap: butt; stroke-linejoin: miter; stroke-miterlimit: 10; fill: none; fill-rule: nonzero; opacity: 1;" transform="translate(-2.4722222222222285 -2.4722222222222285) scale(4.94 4.94)" >
	<circle cx="43.212999999999994" cy="47.623000000000005" r="8.273" style="stroke: none; stroke-width: 1; stroke-dasharray: none; stroke-linecap: butt; stroke-linejoin: miter; stroke-miterlimit: 10; fill: rgb(248,204,29); fill-rule: nonzero; opacity: 1;" transform="  matrix(1 0 0 1 0 0) "/>
	<path d="M 44.447 74.543 c -0.302 0 -0.604 -0.005 -0.907 -0.015 c -8.022 -0.256 -15.373 -3.731 -20.698 -9.784 c -9.552 -10.858 -9.365 -27.713 0.426 -38.373 c 8.587 -9.35 22.053 -11.987 33.506 -6.56 c 1.11 0.525 2.439 0.291 3.314 -0.584 l 9.823 -9.822 l 0.43 -6.757 c 0.064 -1.013 0.694 -1.864 1.643 -2.222 c 0.948 -0.359 1.985 -0.136 2.704 0.581 L 89.25 15.572 c 0.718 0.718 0.94 1.754 0.582 2.703 c -0.358 0.95 -1.21 1.579 -2.222 1.643 l -6.757 0.431 l -9.82 9.818 c -0.878 0.879 -1.125 2.189 -0.615 3.26 c 5.226 10.966 2.964 24.105 -5.627 32.696 C 59.411 71.503 52.041 74.543 44.447 74.543 z M 44.43 19.021 c -7.309 0 -14.468 3.017 -19.69 8.703 c -9.108 9.918 -9.283 25.6 -0.396 35.701 c 4.956 5.633 11.797 8.867 19.26 9.105 c 7.468 0.249 14.491 -2.54 19.773 -7.821 c 7.994 -7.993 10.098 -20.219 5.236 -30.422 c -0.874 -1.834 -0.47 -4.057 1.006 -5.534 l 10.353 -10.352 l 7.511 -0.478 c 0.319 -0.02 0.441 -0.254 0.478 -0.354 c 0.038 -0.1 0.101 -0.356 -0.125 -0.582 L 73.273 2.422 c -0.227 -0.226 -0.483 -0.163 -0.583 -0.125 c -0.1 0.038 -0.334 0.16 -0.354 0.479 l -0.478 7.511 L 61.501 20.642 c -1.47 1.469 -3.714 1.863 -5.583 0.978 C 52.225 19.87 48.306 19.021 44.43 19.021 z" style="stroke: none; stroke-width: 1; stroke-dasharray: none; stroke-linecap: butt; stroke-linejoin: miter; stroke-miterlimit: 10; fill: rgb(0,0,0); fill-rule: nonzero; opacity: 1;" transform=" matrix(1 0 0 1 0 0) " stroke-linecap="round" />
	<path d="M 43.788 89.742 c -6.963 0 -13.904 -1.673 -20.263 -4.995 c -10.365 -5.417 -18 -14.546 -21.498 -25.705 c -3.499 -11.159 -2.442 -23.013 2.974 -33.378 C 13.685 9.046 31.965 -0.196 50.482 2.66 c 0.546 0.084 0.92 0.595 0.836 1.14 c -0.084 0.546 -0.596 0.921 -1.14 0.836 C 32.499 1.909 15.061 10.731 6.773 26.59 c -5.169 9.891 -6.177 21.203 -2.838 31.853 s 10.625 19.361 20.517 24.53 c 11.188 5.848 24.265 6.339 35.874 1.349 c 0.503 -0.215 1.095 0.017 1.313 0.524 c 0.218 0.507 -0.017 1.096 -0.524 1.313 C 55.549 88.552 49.661 89.742 43.788 89.742 z" style="stroke: none; stroke-width: 1; stroke-dasharray: none; stroke-linecap: butt; stroke-linejoin: miter; stroke-miterlimit: 10; fill: rgb(248,204,29); fill-rule: nonzero; opacity: 1;" transform=" matrix(1 0 0 1 0 0) " stroke-linecap="round" />
	<path d="M 74.962 79.183 h -2.394 V 76.79 c 0 -0.553 -0.447 -1 -1 -1 s -1 0.447 -1 1 v 2.393 h -2.393 c -0.553 0 -1 0.447 -1 1 s 0.447 1 1 1 h 2.393 v 2.394 c 0 0.553 0.447 1 1 1 s 1 -0.447 1 -1 v -2.394 h 2.394 c 0.553 0 1 -0.447 1 -1 S 75.514 79.183 74.962 79.183 z" style="stroke: none; stroke-width: 1; stroke-dasharray: none; stroke-linecap: butt; stroke-linejoin: miter; stroke-miterlimit: 10; fill: rgb(248,204,29); fill-rule: nonzero; opacity: 1;" transform=" matrix(1 0 0 1 0 0) " stroke-linecap="round" />
	<path d="M 61.832 44.971 c -0.507 0 -0.941 -0.383 -0.994 -0.898 c -0.46 -4.487 -2.64 -8.526 -6.139 -11.373 c -3.498 -2.847 -7.897 -4.16 -12.384 -3.701 c -2.008 0.206 -3.937 0.759 -5.732 1.642 c -0.497 0.245 -1.095 0.04 -1.339 -0.456 c -0.244 -0.496 -0.04 -1.095 0.456 -1.339 c 2.008 -0.988 4.165 -1.606 6.41 -1.836 c 5.018 -0.522 9.937 0.954 13.849 4.139 c 3.913 3.185 6.352 7.702 6.867 12.72 c 0.056 0.549 -0.344 1.04 -0.892 1.097 C 61.9 44.97 61.866 44.971 61.832 44.971 z" style="stroke: none; stroke-width: 1; stroke-dasharray: none; stroke-linecap: butt; stroke-linejoin: miter; stroke-miterlimit: 10; fill: rgb(248,204,29); fill-rule: nonzero; opacity: 1;" transform=" matrix(1 0 0 1 0 0) " stroke-linecap="round" />
	<path d="M 60.307 58.685 c -1.202 0 -2.332 -0.469 -3.181 -1.318 c -1.754 -1.754 -1.754 -4.608 0 -6.362 c 1.754 -1.754 4.607 -1.754 6.362 0 c 1.754 1.755 1.754 4.609 0 6.362 C 62.639 58.217 61.508 58.685 60.307 58.685 z M 60.307 51.688 c -0.641 0 -1.28 0.243 -1.767 0.73 c -0.973 0.974 -0.974 2.56 0 3.535 c 0.944 0.944 2.588 0.946 3.535 0 c 0.974 -0.974 0.973 -2.56 0 -3.535 C 61.587 51.931 60.946 51.688 60.307 51.688 z" style="stroke: none; stroke-width: 1; stroke-dasharray: none; stroke-linecap: butt; stroke-linejoin: miter; stroke-miterlimit: 10; fill: rgb(248,204,29); fill-rule: nonzero; opacity: 1;" transform=" matrix(1 0 0 1 0 0) " stroke-linecap="round" />
</g>
</svg>