<?xml version="1.0" encoding="iso-8859-1"?>
<!-- Generator: Adobe Illustrator 19.0.0, SVG Export Plug-In . SVG Version: 6.00 Build 0)  -->
<svg version="1.1" id="Layer_1" xmlns="http://www.w3.org/2000/svg" xmlns:xlink="http://www.w3.org/1999/xlink" x="0px" y="0px"
	 viewBox="0 0 512.001 512.001" style="enable-background:new 0 0 512.001 512.001;" xml:space="preserve">
<g>
	<circle style="fill:#F77935;" cx="110.278" cy="244.882" r="27.731"/>
	<circle style="fill:#F77935;" cx="211.552" cy="413.538" r="27.731"/>
	<circle style="fill:#F77935;" cx="312.827" cy="157.122" r="27.731"/>
	<circle style="fill:#F77935;" cx="406.63" cy="336.704" r="27.731"/>
</g>
<path d="M9.003,110.425c4.661,0,8.44-3.779,8.44-8.44V8.44c0-4.661-3.778-8.44-8.44-8.44c-4.661,0-8.44,3.779-8.44,8.44v93.546
	C0.565,106.647,4.342,110.425,9.003,110.425z"/>
<path d="M502.998,495.12H19.028c6.624-37.133,32.127-169.702,67.226-223.234c6.394,5.693,14.81,9.162,24.023,9.162
	c8.692,0,16.675-3.083,22.92-8.211c4.799,13.078,7.736,30.48,10.796,48.667c5.732,34.065,11.661,69.226,31.582,88.285
	c-0.127,1.232-0.195,2.482-0.195,3.748c0,19.945,16.226,36.172,36.172,36.172s36.171-16.226,36.171-36.172
	c0-3.85-0.61-7.557-1.73-11.04c15.651-24.993,19.049-68.737,22.636-114.983c3.144-40.542,6.392-82.292,18.435-105.03
	c6.565,6.668,15.686,10.812,25.761,10.812c10.095,0,19.232-4.161,25.8-10.852c8.797,16.239,11.303,42.23,13.737,67.506
	c2.961,30.755,5.763,59.854,19.176,77.953c-0.707,2.817-1.087,5.761-1.087,8.795c0,19.945,16.226,36.172,36.172,36.172
	c19.945,0,36.172-16.226,36.172-36.172c0-3.872-0.618-7.6-1.75-11.1c14.362-21.503,17.851-57.444,21.531-95.416
	c2.531-26.119,5.147-53.127,11.606-72.531c6.465-19.423,15.352-28.086,28.815-28.086c4.662,0,8.44-3.779,8.44-8.44
	c0-4.661-3.778-8.44-8.44-8.44c-20.993,0-36.076,13.334-44.831,39.634c-7.059,21.21-9.771,49.183-12.392,76.234
	c-2.957,30.525-6.007,61.932-15.114,81.147c-6.395-5.701-14.818-9.174-24.038-9.174c-9.951,0-18.974,4.04-25.521,10.564
	c-7.375-15.397-9.69-39.408-11.938-62.759c-2.995-31.119-6.092-63.23-21.254-82.413c0.707-2.818,1.087-5.763,1.087-8.796
	c0-19.945-16.226-36.172-36.172-36.172s-36.172,16.226-36.172,36.172c0,2.982,0.37,5.877,1.053,8.651
	c-18.453,24.431-22.081,71.092-25.907,120.432c-2.946,37.99-5.984,77.109-16.35,100.21c-6.378-5.627-14.744-9.053-23.899-9.053
	c-11.923,0-22.513,5.801-29.106,14.726c-12.253-16.663-17.103-45.43-21.808-73.39c-3.991-23.72-7.784-46.208-16.162-62.068
	c1.273-3.69,1.973-7.643,1.973-11.759c0-19.945-16.226-36.172-36.171-36.172c-19.945,0-36.172,16.226-36.172,36.172
	c0,4.203,0.728,8.237,2.052,11.993C50.84,291.228,30.58,361.736,17.443,418.427V135.738c0-4.661-3.779-8.44-8.44-8.44
	s-8.44,3.779-8.44,8.44v367.821c0,0.052,0.007,0.101,0.008,0.153c0.003,0.168,0.012,0.334,0.025,0.5
	c0.009,0.117,0.018,0.233,0.032,0.348c0.019,0.16,0.044,0.317,0.072,0.474c0.021,0.123,0.044,0.244,0.07,0.365
	c0.032,0.141,0.069,0.28,0.108,0.419c0.036,0.132,0.073,0.263,0.116,0.392c0.041,0.124,0.087,0.244,0.134,0.366
	c0.053,0.137,0.106,0.275,0.165,0.408c0.05,0.11,0.104,0.217,0.156,0.325c0.068,0.136,0.136,0.271,0.21,0.403
	c0.06,0.105,0.124,0.206,0.187,0.307c0.079,0.126,0.158,0.251,0.243,0.374c0.073,0.105,0.151,0.205,0.23,0.306
	c0.086,0.11,0.17,0.221,0.26,0.326c0.09,0.106,0.185,0.206,0.279,0.307c0.088,0.093,0.174,0.187,0.267,0.277
	c0.106,0.102,0.216,0.2,0.327,0.298c0.091,0.08,0.181,0.16,0.276,0.236c0.117,0.095,0.24,0.182,0.362,0.271
	c0.099,0.071,0.196,0.142,0.298,0.208c0.123,0.08,0.249,0.154,0.376,0.228c0.113,0.065,0.225,0.131,0.34,0.191
	c0.12,0.062,0.243,0.119,0.367,0.177c0.132,0.061,0.263,0.12,0.398,0.174c0.114,0.045,0.231,0.087,0.347,0.127
	c0.151,0.053,0.303,0.104,0.458,0.147c0.11,0.032,0.223,0.059,0.336,0.087c0.163,0.039,0.327,0.077,0.494,0.106
	c0.05,0.009,0.097,0.024,0.146,0.032c0.043,0.007,0.084,0.004,0.127,0.01c0.398,0.059,0.803,0.098,1.219,0.099
	c0.007,0,0.012,0.001,0.019,0.001c0.008,0,0.016-0.001,0.025-0.001h493.957c4.662,0,8.44-3.779,8.44-8.44
	S507.66,495.12,502.998,495.12z M406.625,317.408c10.637,0,19.293,8.654,19.293,19.293c0,10.638-8.654,19.293-19.293,19.293
	c-10.637,0-19.293-8.654-19.293-19.293S395.988,317.408,406.625,317.408z M312.827,137.833c10.637,0,19.293,8.654,19.293,19.293
	s-8.654,19.293-19.293,19.293c-10.637,0-19.293-8.654-19.293-19.293S302.19,137.833,312.827,137.833z M211.554,394.245
	c10.638,0,19.292,8.654,19.292,19.293s-8.654,19.293-19.292,19.293c-10.638,0-19.293-8.654-19.293-19.293
	S200.915,394.245,211.554,394.245z M110.279,225.583c10.638,0,19.292,8.654,19.292,19.293c0,10.638-8.654,19.293-19.292,19.293
	c-6.691,0-12.593-3.428-16.055-8.615c-0.326-1.165-0.911-2.264-1.734-3.217c-0.967-2.297-1.503-4.817-1.503-7.461
	C90.986,234.238,99.641,225.583,110.279,225.583z"/>
<g>
</g>
<g>
</g>
<g>
</g>
<g>
</g>
<g>
</g>
<g>
</g>
<g>
</g>
<g>
</g>
<g>
</g>
<g>
</g>
<g>
</g>
<g>
</g>
<g>
</g>
<g>
</g>
<g>
</g>
</svg>
