<?xml version="1.0" encoding="UTF-8" standalone="no" ?>
<!DOCTYPE svg PUBLIC "-//W3C//DTD SVG 1.1//EN" "http://www.w3.org/Graphics/SVG/1.1/DTD/svg11.dtd">
<svg xmlns="http://www.w3.org/2000/svg" xmlns:xlink="http://www.w3.org/1999/xlink" version="1.1" width="445" height="445" viewBox="0 0 445 445" xml:space="preserve">
<desc>Created with Fabric.js 1.7.22</desc>
<defs>
</defs>
<g id="icon" style="stroke: none; stroke-width: 1; stroke-dasharray: none; stroke-linecap: butt; stroke-linejoin: miter; stroke-miterlimit: 10; fill: none; fill-rule: nonzero; opacity: 1;" transform="translate(-2.4722222222222285 -2.4722222222222285) scale(4.94 4.94)" >
	<circle cx="44.999" cy="8.429" r="7.429" style="stroke: none; stroke-width: 1; stroke-dasharray: none; stroke-linecap: butt; stroke-linejoin: miter; stroke-miterlimit: 10; fill: rgb(165,215,110); fill-rule: nonzero; opacity: 1;" transform="  matrix(1 0 0 1 0 0) "/>
	<path d="M 45 16.859 c -4.648 0 -8.43 -3.781 -8.43 -8.429 S 40.352 0 45 0 c 4.648 0 8.43 3.782 8.43 8.43 S 49.648 16.859 45 16.859 z M 45 2 c -3.545 0 -6.43 2.884 -6.43 6.43 c 0 3.545 2.884 6.429 6.43 6.429 c 3.545 0 6.43 -2.884 6.43 -6.429 C 51.43 4.884 48.545 2 45 2 z" style="stroke: none; stroke-width: 1; stroke-dasharray: none; stroke-linecap: butt; stroke-linejoin: miter; stroke-miterlimit: 10; fill: rgb(91,93,110); fill-rule: nonzero; opacity: 1;" transform=" matrix(1 0 0 1 0 0) " stroke-linecap="round" />
	<path d="M 5.576 58.047 c -0.463 0 -0.878 -0.323 -0.978 -0.794 c -0.586 -2.791 -0.884 -5.663 -0.884 -8.538 c 0 -19.879 14.161 -36.947 33.672 -40.584 c 0.539 -0.105 1.065 0.257 1.166 0.8 c 0.102 0.543 -0.257 1.065 -0.8 1.166 C 19.189 13.558 5.715 29.799 5.715 48.715 c 0 2.737 0.283 5.471 0.841 8.126 c 0.114 0.541 -0.232 1.071 -0.773 1.185 C 5.713 58.04 5.644 58.047 5.576 58.047 z" style="stroke: none; stroke-width: 1; stroke-dasharray: none; stroke-linecap: butt; stroke-linejoin: miter; stroke-miterlimit: 10; fill: rgb(91,93,110); fill-rule: nonzero; opacity: 1;" transform=" matrix(1 0 0 1 0 0) " stroke-linecap="round" />
	<path d="M 45 90 c -12.068 0 -23.497 -5.259 -31.357 -14.43 c -0.359 -0.419 -0.311 -1.05 0.108 -1.409 c 0.418 -0.36 1.051 -0.313 1.41 0.108 C 22.641 82.995 33.517 88 45 88 c 9.975 0 19.484 -3.743 26.777 -10.539 c 0.403 -0.377 1.036 -0.355 1.413 0.05 c 0.377 0.404 0.354 1.037 -0.05 1.413 C 65.476 86.066 55.482 90 45 90 z" style="stroke: none; stroke-width: 1; stroke-dasharray: none; stroke-linecap: butt; stroke-linejoin: miter; stroke-miterlimit: 10; fill: rgb(91,93,110); fill-rule: nonzero; opacity: 1;" transform=" matrix(1 0 0 1 0 0) " stroke-linecap="round" />
	<path d="M 83.002 63.117 c -0.11 0 -0.223 -0.019 -0.333 -0.057 c -0.521 -0.184 -0.794 -0.755 -0.61 -1.276 c 1.478 -4.188 2.227 -8.586 2.227 -13.069 c 0 -17.329 -11.602 -32.833 -28.212 -37.704 c -0.53 -0.155 -0.834 -0.711 -0.679 -1.241 c 0.155 -0.529 0.71 -0.835 1.241 -0.678 c 17.457 5.118 29.649 21.412 29.649 39.623 c 0 4.711 -0.787 9.332 -2.34 13.735 C 83.8 62.86 83.414 63.117 83.002 63.117 z" style="stroke: none; stroke-width: 1; stroke-dasharray: none; stroke-linecap: butt; stroke-linejoin: miter; stroke-miterlimit: 10; fill: rgb(91,93,110); fill-rule: nonzero; opacity: 1;" transform=" matrix(1 0 0 1 0 0) " stroke-linecap="round" />
	<circle cx="79.889" cy="68.859" r="7.429" style="stroke: none; stroke-width: 1; stroke-dasharray: none; stroke-linecap: butt; stroke-linejoin: miter; stroke-miterlimit: 10; fill: rgb(0,210,255); fill-rule: nonzero; opacity: 1;" transform="  matrix(1 0 0 1 0 0) "/>
	<path d="M 79.888 77.286 c -4.648 0 -8.43 -3.781 -8.43 -8.429 c 0 -4.648 3.781 -8.43 8.43 -8.43 s 8.43 3.781 8.43 8.43 C 88.317 73.505 84.536 77.286 79.888 77.286 z M 79.888 62.428 c -3.545 0 -6.43 2.885 -6.43 6.43 s 2.885 6.429 6.43 6.429 s 6.43 -2.884 6.43 -6.429 S 83.433 62.428 79.888 62.428 z" style="stroke: none; stroke-width: 1; stroke-dasharray: none; stroke-linecap: butt; stroke-linejoin: miter; stroke-miterlimit: 10; fill: rgb(91,93,110); fill-rule: nonzero; opacity: 1;" transform=" matrix(1 0 0 1 0 0) " stroke-linecap="round" />
	<circle cx="10.109" cy="68.859" r="7.429" style="stroke: none; stroke-width: 1; stroke-dasharray: none; stroke-linecap: butt; stroke-linejoin: miter; stroke-miterlimit: 10; fill: rgb(255,100,100); fill-rule: nonzero; opacity: 1;" transform="  matrix(1 0 0 1 0 0) "/>
	<path d="M 10.112 77.286 c -4.648 0 -8.429 -3.781 -8.429 -8.429 c 0 -4.648 3.781 -8.43 8.429 -8.43 s 8.43 3.781 8.43 8.43 C 18.542 73.505 14.76 77.286 10.112 77.286 z M 10.112 62.428 c -3.545 0 -6.429 2.885 -6.429 6.43 s 2.884 6.429 6.429 6.429 c 3.545 0 6.43 -2.884 6.43 -6.429 S 13.658 62.428 10.112 62.428 z" style="stroke: none; stroke-width: 1; stroke-dasharray: none; stroke-linecap: butt; stroke-linejoin: miter; stroke-miterlimit: 10; fill: rgb(91,93,110); fill-rule: nonzero; opacity: 1;" transform=" matrix(1 0 0 1 0 0) " stroke-linecap="round" />
	<path d="M 13.545 36.892 c -0.125 0 -0.251 -0.024 -0.374 -0.073 c -0.512 -0.207 -0.76 -0.79 -0.553 -1.302 c 4.771 -11.814 15.584 -20.092 28.219 -21.602 c 0.542 -0.06 1.046 0.326 1.112 0.875 c 0.065 0.548 -0.326 1.046 -0.875 1.112 c -11.911 1.423 -22.104 9.227 -26.602 20.365 C 14.316 36.655 13.941 36.892 13.545 36.892 z" style="stroke: none; stroke-width: 1; stroke-dasharray: none; stroke-linecap: butt; stroke-linejoin: miter; stroke-miterlimit: 10; fill: rgb(91,93,110); fill-rule: nonzero; opacity: 1;" transform=" matrix(1 0 0 1 0 0) " stroke-linecap="round" />
	<path d="M 45.045 83.551 c -0.768 0 -1.537 -0.025 -2.304 -0.075 c -10.19 -0.667 -19.552 -5.741 -25.684 -13.92 c -0.331 -0.441 -0.242 -1.068 0.2 -1.399 c 0.443 -0.331 1.069 -0.242 1.4 0.2 c 5.781 7.711 14.607 12.494 24.214 13.123 c 2.168 0.144 4.352 0.071 6.489 -0.21 c 0.563 -0.072 1.05 0.313 1.122 0.86 c 0.072 0.548 -0.313 1.051 -0.86 1.122 C 48.111 83.451 46.579 83.551 45.045 83.551 z" style="stroke: none; stroke-width: 1; stroke-dasharray: none; stroke-linecap: butt; stroke-linejoin: miter; stroke-miterlimit: 10; fill: rgb(91,93,110); fill-rule: nonzero; opacity: 1;" transform=" matrix(1 0 0 1 0 0) " stroke-linecap="round" />
	<path d="M 76.233 62.969 c -0.132 0 -0.265 -0.025 -0.394 -0.081 c -0.508 -0.217 -0.743 -0.805 -0.525 -1.313 c 1.465 -3.424 2.333 -7.063 2.578 -10.813 c 0.553 -8.438 -2.114 -16.668 -7.509 -23.174 c -0.353 -0.425 -0.294 -1.056 0.131 -1.408 c 0.428 -0.353 1.057 -0.293 1.408 0.132 c 5.723 6.901 8.552 15.631 7.966 24.582 c -0.261 3.978 -1.182 7.837 -2.736 11.47 C 76.99 62.741 76.621 62.969 76.233 62.969 z" style="stroke: none; stroke-width: 1; stroke-dasharray: none; stroke-linecap: butt; stroke-linejoin: miter; stroke-miterlimit: 10; fill: rgb(91,93,110); fill-rule: nonzero; opacity: 1;" transform=" matrix(1 0 0 1 0 0) " stroke-linecap="round" />
</g>
</svg>