<?xml version="1.0" encoding="UTF-8" standalone="no" ?>
<!DOCTYPE svg PUBLIC "-//W3C//DTD SVG 1.1//EN" "http://www.w3.org/Graphics/SVG/1.1/DTD/svg11.dtd">
<svg xmlns="http://www.w3.org/2000/svg" xmlns:xlink="http://www.w3.org/1999/xlink" version="1.1" width="445" height="445" viewBox="0 0 445 445" xml:space="preserve">
<desc>Created with Fabric.js 1.7.22</desc>
<defs>
</defs>
<g id="icon" style="stroke: none; stroke-width: 1; stroke-dasharray: none; stroke-linecap: butt; stroke-linejoin: miter; stroke-miterlimit: 10; fill: none; fill-rule: nonzero; opacity: 1;" transform="translate(-2.4722222222222285 -2.4722222222222285) scale(4.94 4.94)" >
	<path d="M 52.431 25.486 V 9.755 l 5.209 -5.918 C 58.612 2.734 57.828 1 56.358 1 h -3.927 H 37.569 h -3.927 c -1.47 0 -2.254 1.734 -1.282 2.837 l 5.209 5.918 v 15.736 c 0 1.827 -1.14 3.464 -2.861 4.079 c -12.233 4.367 -20.874 16.296 -20.284 30.161 c 0.658 15.475 13.106 28.216 28.563 29.204 c 17.813 1.139 32.616 -12.971 32.616 -30.54 c 0 -13.315 -8.504 -24.639 -20.376 -28.848 C 53.529 28.945 52.431 27.289 52.431 25.486 z" style="stroke: none; stroke-width: 1; stroke-dasharray: none; stroke-linecap: butt; stroke-linejoin: miter; stroke-miterlimit: 10; fill: rgb(255,255,255); fill-rule: nonzero; opacity: 1;" transform=" matrix(1 0 0 1 0 0) " stroke-linecap="round" />
	<path d="M 45.026 90.001 c -0.698 0 -1.398 -0.022 -2.102 -0.067 c -15.865 -1.015 -28.822 -14.262 -29.499 -30.159 c -0.593 -13.945 7.825 -26.461 20.947 -31.146 c 1.314 -0.469 2.197 -1.729 2.197 -3.137 V 10.133 l -4.959 -5.635 c -0.712 -0.809 -0.879 -1.922 -0.436 -2.905 C 31.618 0.61 32.564 0 33.642 0 h 22.715 c 1.078 0 2.024 0.61 2.468 1.593 c 0.444 0.982 0.278 2.096 -0.434 2.905 l -4.961 5.635 v 15.354 c 0 1.414 0.856 2.667 2.132 3.119 c 12.586 4.462 21.042 16.434 21.042 29.79 c 0 8.698 -3.64 17.101 -9.986 23.055 C 60.695 87.006 53.094 90.001 45.026 90.001 z M 33.642 2 c -0.413 0 -0.589 0.292 -0.646 0.417 c -0.057 0.125 -0.159 0.45 0.114 0.76 l 5.458 6.201 v 16.114 c 0 2.25 -1.416 4.268 -3.524 5.021 C 22.753 34.9 14.868 46.625 15.423 59.689 c 0.633 14.89 12.769 27.298 27.628 28.248 c 8.283 0.525 16.17 -2.291 22.198 -7.946 c 6.032 -5.659 9.354 -13.328 9.354 -21.596 c 0 -12.511 -7.921 -23.726 -19.71 -27.905 c -2.072 -0.734 -3.464 -2.746 -3.464 -5.004 V 9.378 l 5.459 -6.201 c 0.272 -0.31 0.17 -0.635 0.113 -0.76 C 56.946 2.292 56.771 2 56.357 2 H 33.642 z" style="stroke: none; stroke-width: 1; stroke-dasharray: none; stroke-linecap: butt; stroke-linejoin: miter; stroke-miterlimit: 10; fill: rgb(0,210,255); fill-rule: nonzero; opacity: 1;" transform=" matrix(1 0 0 1 0 0) " stroke-linecap="round" />
	<path d="M 64.829 54.012 h -1.053 c -0.897 0 -1.716 -0.553 -2.009 -1.4 c -0.235 -0.681 -0.511 -1.343 -0.824 -1.984 c -0.392 -0.802 -0.207 -1.767 0.424 -2.398 l 0.755 -0.755 c 0.331 -0.331 0.331 -0.867 0 -1.198 l -5.002 -5.002 c -0.331 -0.331 -0.867 -0.331 -1.198 0 l -0.755 0.755 c -0.631 0.631 -1.596 0.815 -2.398 0.424 c -0.64 -0.313 -1.303 -0.589 -1.983 -0.824 c -0.848 -0.293 -1.4 -1.112 -1.4 -2.009 v -1.053 c 0 -0.468 -0.379 -0.847 -0.847 -0.847 h -7.075 c -0.468 0 -0.847 0.379 -0.847 0.847 v 1.053 c 0 0.897 -0.553 1.716 -1.4 2.009 c -0.681 0.235 -1.343 0.511 -1.983 0.824 c -0.802 0.392 -1.767 0.207 -2.398 -0.424 l -0.755 -0.755 c -0.331 -0.331 -0.867 -0.331 -1.198 0 l -5.002 5.002 c -0.331 0.331 -0.331 0.867 0 1.198 l 0.755 0.755 c 0.631 0.631 0.815 1.596 0.424 2.398 c -0.313 0.641 -0.589 1.303 -0.824 1.984 c -0.293 0.848 -1.112 1.4 -2.009 1.4 h -1.054 c -0.468 0 -0.847 0.379 -0.847 0.847 v 7.075 c 0 0.468 0.379 0.847 0.847 0.847 h 1.053 c 0.897 0 1.716 0.553 2.009 1.4 c 0.235 0.681 0.511 1.343 0.824 1.983 c 0.392 0.802 0.207 1.767 -0.424 2.398 l -0.755 0.755 c -0.331 0.331 -0.331 0.867 0 1.198 l 5.002 5.002 c 0.331 0.331 0.867 0.331 1.198 0 l 0.755 -0.755 c 0.631 -0.631 1.596 -0.815 2.398 -0.424 c 0.64 0.313 1.303 0.589 1.983 0.824 c 0.848 0.293 1.4 1.112 1.4 2.009 v 1.053 c 0 0.468 0.379 0.847 0.847 0.847 h 7.075 c 0.468 0 0.847 -0.379 0.847 -0.847 v -1.053 c 0 -0.897 0.553 -1.716 1.4 -2.009 c 0.681 -0.235 1.343 -0.511 1.983 -0.824 c 0.802 -0.392 1.767 -0.207 2.398 0.424 l 0.755 0.755 c 0.331 0.331 0.867 0.331 1.198 0 l 5.002 -5.002 c 0.331 -0.331 0.331 -0.867 0 -1.198 l -0.755 -0.755 c -0.631 -0.631 -0.815 -1.596 -0.424 -2.398 c 0.313 -0.64 0.589 -1.303 0.824 -1.983 c 0.293 -0.848 1.112 -1.4 2.009 -1.4 h 1.053 c 0.468 0 0.847 -0.379 0.847 -0.847 v -7.075 C 65.676 54.391 65.296 54.012 64.829 54.012 z M 45.886 69.273 c -6.724 0.53 -12.293 -5.039 -11.763 -11.763 c 0.417 -5.289 4.703 -9.575 9.992 -9.992 c 6.724 -0.53 12.293 5.039 11.763 11.763 C 55.461 64.571 51.175 68.856 45.886 69.273 z" style="stroke: none; stroke-width: 1; stroke-dasharray: none; stroke-linecap: butt; stroke-linejoin: miter; stroke-miterlimit: 10; fill: rgb(255,100,100); fill-rule: nonzero; opacity: 1;" transform=" matrix(1 0 0 1 0 0) " stroke-linecap="round" />
	<path d="M 75.576 59.731 c -0.727 16.942 -15.228 30.315 -32.588 29.204 C 27.53 87.947 15.082 75.207 14.424 59.731 c 9.678 3.531 19.663 3.148 30.576 0 c 10.785 -2.941 20.925 -3.235 30.574 0 L 75.576 59.731 z" style="stroke: none; stroke-width: 1; stroke-dasharray: none; stroke-linecap: butt; stroke-linejoin: miter; stroke-miterlimit: 10; fill: rgb(0,210,255); fill-rule: nonzero; opacity: 1;" transform=" matrix(1 0 0 1 0 0) " stroke-linecap="round" />
</g>
</svg>